<?xml version="1.0" standalone="no"?>
<!DOCTYPE svg PUBLIC "-//W3C//DTD SVG 20010904//EN"
 "http://www.w3.org/TR/2001/REC-SVG-20010904/DTD/svg10.dtd">
<svg version="1.0" xmlns="http://www.w3.org/2000/svg"
 width="700.000000pt" height="700.000000pt" viewBox="0 0 700.000000 700.000000"
 preserveAspectRatio="xMidYMid meet">
<metadata>
Created by potrace 1.11, written by Peter Selinger 2001-2013
</metadata>
<g transform="translate(0.000000,700.000000) scale(0.100000,-0.100000)"
fill="#000000" stroke="none">
<path d="M0 3500 l0 -3500 3500 0 3500 0 0 3500 0 3500 -3500 0 -3500 0 0
-3500z m3457 1373 c-2 -2 -284 -2 -626 -1 l-623 3 624 859 623 858 3 -857 c1
-472 1 -860 -1 -862z m222 1534 c69 -95 254 -351 413 -570 l288 -399 0 -284 0
-284 -420 0 -420 0 0 855 c0 470 3 855 8 855 4 -1 63 -78 131 -173z m-686
-209 l37 -33 -471 -647 -471 -648 -621 0 c-372 0 -617 4 -611 9 5 5 467 320
1028 700 l1018 691 27 -20 c14 -10 43 -34 64 -52z m-919 -1435 c3 -10 156
-508 340 -1108 184 -600 441 -1438 571 -1864 l237 -774 -40 -39 -39 -40 -145
234 c-249 399 -2180 3526 -2225 3601 -2 4 288 7 646 7 610 0 650 -1 655 -17z
m1381 5 c3 -7 4 -953 3 -2103 l-3 -2090 -48 155 c-26 85 -165 538 -308 1005
-364 1186 -918 2997 -925 3017 -5 17 16 18 308 21 907 8 969 7 973 -5z m648 5
l277 -6 0 -730 0 -731 -41 -135 c-152 -509 -783 -2569 -790 -2581 -5 -8 -9
928 -9 2081 0 1153 3 2099 7 2102 8 9 201 9 556 0z"/>
</g>
</svg>
